<?xml version="1.0" encoding="utf-8"?>
<!-- Generator: Adobe Illustrator 16.0.0, SVG Export Plug-In . SVG Version: 6.00 Build 0)  -->
<!DOCTYPE svg PUBLIC "-//W3C//DTD SVG 1.1//EN" "http://www.w3.org/Graphics/SVG/1.1/DTD/svg11.dtd">
<svg version="1.1" id="Layer_1" xmlns="http://www.w3.org/2000/svg" xmlns:xlink="http://www.w3.org/1999/xlink" x="0px" y="0px"
	 width="205.689px" height="252px" viewBox="47.155 -1 205.689 252" enable-background="new 47.155 -1 205.689 252"
	 xml:space="preserve">
<g id="Layer_4">
	<g>
		<path fill="#c6ff00" d="M219.475,78.774l-68.928-41.028c-0.547,0-0.547,0-1.094,0L79.978,78.774c-0.547,0-0.547,0.547-0.547,1.094
			v101.204v0.547c8.752,12.035,31.182,35.559,70.022,35.559c38.84,0,61.27-21.883,70.021-33.37v-0.548V79.869
			C220.021,79.322,220.021,79.322,219.475,78.774z M123.742,119.256l12.582-25.711l12.035-25.164c0.547-1.094,1.641-1.094,2.188,0
			l12.035,25.164l12.582,25.711c0.547,0.547,0,1.094-0.547,1.641l-12.035,6.017L150,133.479c-0.547,0-0.547,0-1.094,0l-12.582-6.564
			l-12.035-6.017C123.742,120.35,123.742,119.803,123.742,119.256z M188.84,171.772l-5.471,10.394
			c-0.547,0.547-1.094,0.547-1.641,0.547L150,166.85c-0.547,0-0.547,0-1.094,0l-31.729,15.863c-0.547,0.547-1.094,0-1.641-0.547
			l-5.471-10.394c-0.547-0.547,0-1.095,0.547-1.642l20.788-10.394c1.094-0.547,1.094-1.642,0-2.188l-19.693-9.847
			c-0.547-0.547-0.547-1.094-0.547-1.641l5.471-10.394c0.547-0.548,1.094-0.548,1.641-0.548l31.182,15.317c0.547,0,0.547,0,1.094,0
			l31.182-15.317c0.547-0.547,1.094,0,1.641,0.548l5.471,10.394c0.547,0.547,0,1.094-0.547,1.641l-20.787,9.847
			c-1.095,0.547-1.095,1.642,0,2.188l20.787,10.394C188.84,170.131,189.387,171.226,188.84,171.772z"/>
		<path fill="#FFFFFF" d="M142.888,114.333l6.565,3.282c0.547,0,0.547,0,1.094,0l6.564-3.282c0.547-0.547,0.547-1.094,0.547-1.641
			l-6.564-12.582c-0.547-1.094-1.641-1.094-2.188,0l-6.564,13.129C142.341,113.786,142.341,114.333,142.888,114.333z"/>
		<path fill="#000000" d="M252.297,60.722L150.547,0C150,0,150,0,149.453,0L47.703,60.175c-0.547,0.547-0.547,1.094-0.547,1.642
			v129.103v0.548C49.344,195.842,79.978,250,150,250c69.475,0,100.109-51.969,102.845-56.346v-0.547V61.816
			C252.845,61.269,252.297,60.722,252.297,60.722z M236.98,188.73v0.547l-1.094,1.642c-9.301,13.13-36.105,43.217-85.887,43.217
			s-76.586-31.729-85.886-45.405l-1.094-1.641v-0.547V70.569c0-0.547,0-0.547,0.547-1.094l85.886-51.422c0.547,0,0.547,0,1.094,0
			l85.887,51.422c0.547,0,0.547,0.547,0.547,1.094V188.73L236.98,188.73z"/>
	</g>
</g>
<g id="Layer_3">
</g>
</svg>
